<svg version="1.1" xmlns="http://www.w3.org/2000/svg" xmlns:xlink="http://www.w3.org/1999/xlink" width="64.000000pt" height="64.000000pt" viewBox="0,0,256,256"><g fill="#2b2b2b" fill-rule="nonzero" stroke="none" stroke-width="1" stroke-linecap="butt" stroke-linejoin="miter" stroke-miterlimit="10" stroke-dasharray="" stroke-dashoffset="0" font-family="none" font-weight="none" font-size="none" text-anchor="none" style="mix-blend-mode: normal"><g transform="scale(4,4)"><g transform="translate(0,64) scale(0.1,-0.1)"><path d="M303,468l-153,-153l-20,-99c-11,-55 -19,-101 -17,-103c2,-2 48,6 103,17l99,20l153,153c83,84 152,159 152,167c0,7 -31,44 -68,82c-38,37 -75,68 -82,68c-8,0 -83,-69 -167,-152zM525,520c48,-49 48,-50 30,-70l-19,-21l-53,53c-49,49 -52,53 -36,70c9,10 19,18 22,18c4,0 29,-22 56,-50zM455,450l49,-50l-99,-100l-99,-100l-53,52l-53,52l97,98c54,54 100,98 103,98c3,0 28,-23 55,-50zM227,228c18,-18 33,-35 33,-39c0,-6 -92,-31 -97,-26c-4,5 19,97 25,97c3,0 21,-14 39,-32z"></path><path d="M0,40c0,-20 7,-20 320,-20c313,0 320,0 320,20c0,20 -7,20 -320,20c-313,0 -320,0 -320,-20z"></path></g></g></g></svg>