<svg version="1.1" xmlns="http://www.w3.org/2000/svg" xmlns:xlink="http://www.w3.org/1999/xlink" width="512.000000pt" height="512.000000pt" viewBox="0,0,256,256"><g fill="#2b2b2b" fill-rule="nonzero" stroke="none" stroke-width="1" stroke-linecap="butt" stroke-linejoin="miter" stroke-miterlimit="10" stroke-dasharray="" stroke-dashoffset="0" font-family="none" font-weight="none" font-size="none" text-anchor="none" style="mix-blend-mode: normal"><g transform="translate(-0.07941,0.02155) scale(0.5,0.5)"><g transform="translate(0,512) scale(0.1,-0.1)"><path d="M2506,3135c-59,-21 -919,-881 -942,-942c-29,-75 -5,-142 66,-190c36,-25 106,-31 143,-12c12,6 194,183 405,392l382,382l388,-388c419,-419 419,-419 501,-397c101,27 150,130 106,224c-8,17 -216,232 -463,478c-380,379 -453,448 -487,457c-49,13 -51,13 -99,-4z"></path></g></g></g></svg>