<?xml version="1.0" standalone="no"?>
<!DOCTYPE svg PUBLIC "-//W3C//DTD SVG 20010904//EN"
 "http://www.w3.org/TR/2001/REC-SVG-20010904/DTD/svg10.dtd">
<svg version="1.0" xmlns="http://www.w3.org/2000/svg"
 width="512.000000pt" height="512.000000pt" viewBox="0 0 512.000000 512.000000"
 preserveAspectRatio="xMidYMid meet">

<g transform="translate(0.000000,512.000000) scale(0.100000,-0.100000)"
fill="#000000" stroke="none">
<path d="M2506 3135 c-59 -21 -919 -881 -942 -942 -29 -75 -5 -142 66 -190 36
-25 106 -31 143 -12 12 6 194 183 405 392 l382 382 388 -388 c419 -419 419
-419 501 -397 101 27 150 130 106 224 -8 17 -216 232 -463 478 -380 379 -453
448 -487 457 -49 13 -51 13 -99 -4z"/>
</g>
</svg>
