<?xml version="1.0" standalone="no"?>
<!DOCTYPE svg PUBLIC "-//W3C//DTD SVG 20010904//EN"
 "http://www.w3.org/TR/2001/REC-SVG-20010904/DTD/svg10.dtd">
<svg version="1.0" xmlns="http://www.w3.org/2000/svg"
 width="64.000000pt" height="64.000000pt" viewBox="0 0 64.000000 64.000000"
 preserveAspectRatio="xMidYMid meet">

<g transform="translate(0.000000,64.000000) scale(0.100000,-0.100000)"
fill="#000000" stroke="none">
<path d="M303 468 l-153 -153 -20 -99 c-11 -55 -19 -101 -17 -103 2 -2 48 6
103 17 l99 20 153 153 c83 84 152 159 152 167 0 7 -31 44 -68 82 -38 37 -75
68 -82 68 -8 0 -83 -69 -167 -152z m222 52 c48 -49 48 -50 30 -70 l-19 -21
-53 53 c-49 49 -52 53 -36 70 9 10 19 18 22 18 4 0 29 -22 56 -50z m-70 -70
l49 -50 -99 -100 -99 -100 -53 52 -53 52 97 98 c54 54 100 98 103 98 3 0 28
-23 55 -50z m-228 -222 c18 -18 33 -35 33 -39 0 -6 -92 -31 -97 -26 -4 5 19
97 25 97 3 0 21 -14 39 -32z"/>
<path d="M0 40 c0 -20 7 -20 320 -20 313 0 320 0 320 20 0 20 -7 20 -320 20
-313 0 -320 0 -320 -20z"/>
</g>
</svg>
